<?xml version="1.0" encoding="utf-8"?>
<!-- Generator: Adobe Illustrator 21.0.0, SVG Export Plug-In . SVG Version: 6.00 Build 0)  -->
<svg version="1.1" id="Слой_1" xmlns="http://www.w3.org/2000/svg" xmlns:xlink="http://www.w3.org/1999/xlink" x="0px" y="0px"
	 viewBox="0 0 20.6 19.7" style="enable-background:new 0 0 20.6 19.7;" xml:space="preserve">
<style type="text/css">
	.st0{fill:#343434;}
	.st1{fill:#EC573B;}
</style>
<path id="Корзина" class="st0" d="M16.3,16C16.3,16,16.3,16,16.3,16c-1,0-1.9,0.8-1.9,1.9c0,1,0.8,1.9,1.9,1.9
	c1,0,1.9-0.8,1.9-1.9C18.1,16.8,17.3,16,16.3,16z M7.3,16C7.3,16,7.3,16,7.3,16c-1,0-1.9,0.8-1.9,1.9c0,1,0.8,1.9,1.9,1.9
	c1,0,1.9-0.8,1.9-1.9C9.1,16.8,8.3,16,7.3,16z M19.1,2h-14C5.6,1.9,6,1.5,6,1c0-0.5-0.5-1-1-1H1C0.5,0,0,0.5,0,1s0.5,1,1,1h2.1
	c0,0.4,0,0.7,0.1,1l1.5,10.3c0.2,0.9,1,1.6,1.9,1.6h10.9c0.9,0,1.7-0.7,1.9-1.6l1.2-8.9C20.8,3.1,20.2,2,19.1,2z M18.6,4.2l-1.2,8.8
	c0,0,0,0,0,0H6.7L5.4,4h13.2L18.6,4.2z"/>
<path class="st1" d="M18.6,4l0,0.2l-1.2,8.8c0,0,0,0,0,0H6.7L5.4,4H18.6z"/>
</svg>
